STARTFONT 2.1
COMMENT
COMMENT Converted from OpenType font "CourierPrime-Bold.ttf" by "otf2bdf 3.0".
COMMENT
FONT -FreeType-Courier Prime-Bold-R-Normal--17-120-100-100-P-87-ISO10646-1
SIZE 12 100 100
FONTBOUNDINGBOX 20 21 -7 -5
STARTPROPERTIES 19
FOUNDRY "FreeType"
FAMILY_NAME "Courier Prime"
WEIGHT_NAME "Bold"
SLANT "R"
SETWIDTH_NAME "Normal"
ADD_STYLE_NAME ""
PIXEL_SIZE 17
POINT_SIZE 120
RESOLUTION_X 100
RESOLUTION_Y 100
SPACING "P"
AVERAGE_WIDTH 87
CHARSET_REGISTRY "ISO10646"
CHARSET_ENCODING "1"
FONT_ASCENT 13
FONT_DESCENT 5
COPYRIGHT "Copyright 2015 The Courier Prime Project Authors (https://github.com/quoteunquoteapps/CourierPrime)."
_OTF_FONTFILE "CourierPrime-Bold.ttf"
_OTF_PSNAME "CourierPrime-Bold"
ENDPROPERTIES
CHARS 383
STARTCHAR 000D
ENCODING 13
SWIDTH 600 0
DWIDTH 10 0
BBX 0 0 0 0
BITMAP
ENDCHAR
STARTCHAR 0020
ENCODING 32
SWIDTH 600 0
DWIDTH 10 0
BBX 0 0 0 0
BITMAP
ENDCHAR
STARTCHAR 0021
ENCODING 33
SWIDTH 600 0
DWIDTH 10 0
BBX 2 11 4 0
BITMAP
C0
C0
C0
C0
C0
C0
00
00
C0
C0
C0
ENDCHAR
STARTCHAR 0022
ENCODING 34
SWIDTH 600 0
DWIDTH 10 0
BBX 8 5 1 6
BITMAP
E7
67
66
66
62
ENDCHAR
STARTCHAR 0023
ENCODING 35
SWIDTH 600 0
DWIDTH 10 0
BBX 10 10 0 0
BITMAP
0980
1980
7FC0
7FC0
1300
3300
FF80
FF80
2600
6600
ENDCHAR
STARTCHAR 0024
ENCODING 36
SWIDTH 600 0
DWIDTH 10 0
BBX 8 12 1 -1
BITMAP
18
18
7A
7F
FA
7E
3F
DB
FF
DE
18
18
ENDCHAR
STARTCHAR 0025
ENCODING 37
SWIDTH 600 0
DWIDTH 10 0
BBX 10 10 0 0
BITMAP
7000
F880
F980
7300
0E00
1F80
3FC0
66C0
47C0
0380
ENDCHAR
STARTCHAR 0026
ENCODING 38
SWIDTH 600 0
DWIDTH 10 0
BBX 9 10 1 0
BITMAP
3C00
7E00
6600
6000
7300
FF00
DE00
CE00
FF00
7B80
ENDCHAR
STARTCHAR 0027
ENCODING 39
SWIDTH 600 0
DWIDTH 10 0
BBX 2 5 4 6
BITMAP
C0
C0
C0
C0
C0
ENDCHAR
STARTCHAR 0028
ENCODING 40
SWIDTH 600 0
DWIDTH 10 0
BBX 6 14 2 -3
BITMAP
08
3C
30
60
60
C0
C0
C0
C0
60
60
30
3C
08
ENDCHAR
STARTCHAR 0029
ENCODING 41
SWIDTH 600 0
DWIDTH 10 0
BBX 6 14 2 -3
BITMAP
60
F0
38
18
1C
0C
0C
0C
0C
1C
18
38
F0
60
ENDCHAR
STARTCHAR 002A
ENCODING 42
SWIDTH 600 0
DWIDTH 10 0
BBX 7 7 2 3
BITMAP
30
30
F4
FE
30
FC
4C
ENDCHAR
STARTCHAR 002B
ENCODING 43
SWIDTH 600 0
DWIDTH 10 0
BBX 8 8 1 1
BITMAP
18
18
18
FF
FF
18
18
18
ENDCHAR
STARTCHAR 002C
ENCODING 44
SWIDTH 600 0
DWIDTH 10 0
BBX 4 5 3 -2
BITMAP
70
60
C0
C0
C0
ENDCHAR
STARTCHAR 002D
ENCODING 45
SWIDTH 600 0
DWIDTH 10 0
BBX 8 2 1 4
BITMAP
FF
FF
ENDCHAR
STARTCHAR 002E
ENCODING 46
SWIDTH 600 0
DWIDTH 10 0
BBX 2 3 4 0
BITMAP
C0
C0
C0
ENDCHAR
STARTCHAR 002F
ENCODING 47
SWIDTH 600 0
DWIDTH 10 0
BBX 8 14 1 -3
BITMAP
03
07
06
06
0C
0C
18
18
38
30
30
60
60
C0
ENDCHAR
STARTCHAR 0030
ENCODING 48
SWIDTH 600 0
DWIDTH 10 0
BBX 8 10 1 0
BITMAP
3C
7E
67
C3
C3
C3
C3
67
7E
3C
ENDCHAR
STARTCHAR 0031
ENCODING 49
SWIDTH 600 0
DWIDTH 10 0
BBX 7 10 2 0
BITMAP
10
70
F0
B0
30
30
30
30
FE
FE
ENDCHAR
STARTCHAR 0032
ENCODING 50
SWIDTH 600 0
DWIDTH 10 0
BBX 8 10 1 0
BITMAP
3C
7E
66
66
06
0C
38
73
FF
FF
ENDCHAR
STARTCHAR 0033
ENCODING 51
SWIDTH 600 0
DWIDTH 10 0
BBX 7 10 2 0
BITMAP
F8
FC
CC
0C
3C
3C
0E
0E
FC
F8
ENDCHAR
STARTCHAR 0034
ENCODING 52
SWIDTH 600 0
DWIDTH 10 0
BBX 8 10 1 0
BITMAP
0C
1C
1C
3C
6C
FF
FF
0C
3F
3F
ENDCHAR
STARTCHAR 0035
ENCODING 53
SWIDTH 600 0
DWIDTH 10 0
BBX 8 10 1 0
BITMAP
7E
7E
60
7C
7E
07
07
47
FE
7C
ENDCHAR
STARTCHAR 0036
ENCODING 54
SWIDTH 600 0
DWIDTH 10 0
BBX 8 10 1 0
BITMAP
0F
3F
70
7C
FE
E7
E3
63
7E
3C
ENDCHAR
STARTCHAR 0037
ENCODING 55
SWIDTH 600 0
DWIDTH 10 0
BBX 7 10 2 0
BITMAP
FE
FE
8C
8C
1C
18
18
30
30
60
ENDCHAR
STARTCHAR 0038
ENCODING 56
SWIDTH 600 0
DWIDTH 10 0
BBX 8 10 1 0
BITMAP
3C
7E
66
66
7E
7E
E7
E7
7E
3C
ENDCHAR
STARTCHAR 0039
ENCODING 57
SWIDTH 600 0
DWIDTH 10 0
BBX 8 10 1 0
BITMAP
3C
7E
E7
E7
7F
3B
07
0E
7C
78
ENDCHAR
STARTCHAR 003A
ENCODING 58
SWIDTH 600 0
DWIDTH 10 0
BBX 2 8 4 0
BITMAP
C0
C0
C0
00
00
C0
C0
C0
ENDCHAR
STARTCHAR 003B
ENCODING 59
SWIDTH 600 0
DWIDTH 10 0
BBX 4 10 3 -2
BITMAP
60
60
60
00
00
70
60
60
C0
C0
ENDCHAR
STARTCHAR 003C
ENCODING 60
SWIDTH 600 0
DWIDTH 10 0
BBX 8 9 1 1
BITMAP
03
0F
3E
78
E0
78
3E
0F
03
ENDCHAR
STARTCHAR 003D
ENCODING 61
SWIDTH 600 0
DWIDTH 10 0
BBX 8 6 1 2
BITMAP
FF
FF
00
00
FF
FF
ENDCHAR
STARTCHAR 003E
ENCODING 62
SWIDTH 600 0
DWIDTH 10 0
BBX 8 9 1 1
BITMAP
40
F0
3C
1F
07
0F
3C
F0
40
ENDCHAR
STARTCHAR 003F
ENCODING 63
SWIDTH 600 0
DWIDTH 10 0
BBX 6 11 2 0
BITMAP
78
FC
CC
8C
1C
38
30
30
00
30
30
ENDCHAR
STARTCHAR 0040
ENCODING 64
SWIDTH 600 0
DWIDTH 10 0
BBX 10 10 0 -1
BITMAP
1F00
3180
6D80
5AC0
D240
D2C0
D6C0
5F80
6000
3E00
ENDCHAR
STARTCHAR 0041
ENCODING 65
SWIDTH 600 0
DWIDTH 10 0
BBX 10 10 0 0
BITMAP
7E00
7E00
1E00
1300
3300
3F00
3F80
6180
F3C0
F3C0
ENDCHAR
STARTCHAR 0042
ENCODING 66
SWIDTH 600 0
DWIDTH 10 0
BBX 8 10 1 0
BITMAP
FE
FF
63
63
7E
7F
63
63
FF
FE
ENDCHAR
STARTCHAR 0043
ENCODING 67
SWIDTH 600 0
DWIDTH 10 0
BBX 8 10 1 0
BITMAP
3F
7F
E3
C3
C0
C0
C0
E1
7F
3E
ENDCHAR
STARTCHAR 0044
ENCODING 68
SWIDTH 600 0
DWIDTH 10 0
BBX 10 10 0 0
BITMAP
FE00
7F80
3180
3180
31C0
31C0
3180
3180
7F80
FE00
ENDCHAR
STARTCHAR 0045
ENCODING 69
SWIDTH 600 0
DWIDTH 10 0
BBX 9 10 0 0
BITMAP
FF80
7F80
3180
3180
3C00
3C00
3180
3180
7F80
FF80
ENDCHAR
STARTCHAR 0046
ENCODING 70
SWIDTH 600 0
DWIDTH 10 0
BBX 9 10 0 0
BITMAP
FF80
7F80
3180
3000
3E00
3E00
3000
3000
7C00
FC00
ENDCHAR
STARTCHAR 0047
ENCODING 71
SWIDTH 600 0
DWIDTH 10 0
BBX 9 10 1 0
BITMAP
3F00
7F00
E300
C300
C000
CF80
CF80
E300
7F00
3E00
ENDCHAR
STARTCHAR 0048
ENCODING 72
SWIDTH 600 0
DWIDTH 10 0
BBX 10 10 0 0
BITMAP
FBC0
FBC0
6180
6180
7F80
7F80
6180
6180
FBC0
FBC0
ENDCHAR
STARTCHAR 0049
ENCODING 73
SWIDTH 600 0
DWIDTH 10 0
BBX 8 10 1 0
BITMAP
7F
7F
18
18
18
18
18
18
FF
FF
ENDCHAR
STARTCHAR 004A
ENCODING 74
SWIDTH 600 0
DWIDTH 10 0
BBX 9 10 1 0
BITMAP
3F80
3F80
0600
0600
0600
C600
C600
CE00
FC00
7800
ENDCHAR
STARTCHAR 004B
ENCODING 75
SWIDTH 600 0
DWIDTH 10 0
BBX 10 10 0 0
BITMAP
FBC0
FBC0
3300
3600
3C00
3F00
3300
3380
F9C0
F9C0
ENDCHAR
STARTCHAR 004C
ENCODING 76
SWIDTH 600 0
DWIDTH 10 0
BBX 9 10 0 0
BITMAP
FE00
7E00
3000
3000
3000
3180
3180
3180
7F80
FF80
ENDCHAR
STARTCHAR 004D
ENCODING 77
SWIDTH 600 0
DWIDTH 10 0
BBX 10 10 0 0
BITMAP
F1C0
F3C0
7380
7F80
7F80
6D80
6D80
6180
F3C0
F3C0
ENDCHAR
STARTCHAR 004E
ENCODING 78
SWIDTH 600 0
DWIDTH 10 0
BBX 10 10 0 0
BITMAP
F3C0
F3C0
7980
7D80
6D80
6780
6780
6380
FB80
F980
ENDCHAR
STARTCHAR 004F
ENCODING 79
SWIDTH 600 0
DWIDTH 10 0
BBX 9 10 1 0
BITMAP
3C00
7F00
E300
C380
C380
C380
C380
E300
7F00
3C00
ENDCHAR
STARTCHAR 0050
ENCODING 80
SWIDTH 600 0
DWIDTH 10 0
BBX 9 10 0 0
BITMAP
FF00
7F80
3180
3180
3180
3F80
3F00
3000
7E00
FE00
ENDCHAR
STARTCHAR 0051
ENCODING 81
SWIDTH 600 0
DWIDTH 10 0
BBX 9 12 1 -2
BITMAP
3C00
7F00
E300
C380
C380
C380
C300
E300
7E00
3C00
7F00
7F00
ENDCHAR
STARTCHAR 0052
ENCODING 82
SWIDTH 600 0
DWIDTH 10 0
BBX 10 10 0 0
BITMAP
FF00
7F80
3180
3180
3F80
3E00
3300
3380
79C0
F9C0
ENDCHAR
STARTCHAR 0053
ENCODING 83
SWIDTH 600 0
DWIDTH 10 0
BBX 8 10 1 0
BITMAP
3B
7F
E3
E0
7C
1F
C3
E3
FF
DE
ENDCHAR
STARTCHAR 0054
ENCODING 84
SWIDTH 600 0
DWIDTH 10 0
BBX 8 10 1 0
BITMAP
FF
FF
D9
D9
99
18
18
18
7E
7E
ENDCHAR
STARTCHAR 0055
ENCODING 85
SWIDTH 600 0
DWIDTH 10 0
BBX 10 10 0 0
BITMAP
FBC0
FBC0
6180
6180
6180
6180
6180
7380
3F00
1E00
ENDCHAR
STARTCHAR 0056
ENCODING 86
SWIDTH 600 0
DWIDTH 10 0
BBX 10 10 0 0
BITMAP
FBC0
FBC0
7180
3380
3300
3B00
1E00
1E00
0E00
0C00
ENDCHAR
STARTCHAR 0057
ENCODING 87
SWIDTH 600 0
DWIDTH 10 0
BBX 10 10 0 0
BITMAP
F3C0
F3C0
6080
6D80
6D80
7F80
7F80
7380
7380
3380
ENDCHAR
STARTCHAR 0058
ENCODING 88
SWIDTH 600 0
DWIDTH 10 0
BBX 10 10 0 0
BITMAP
FBC0
7BC0
3300
1F00
1E00
1E00
3F00
3300
F3C0
F3C0
ENDCHAR
STARTCHAR 0059
ENCODING 89
SWIDTH 600 0
DWIDTH 10 0
BBX 10 10 0 0
BITMAP
FBC0
FBC0
3380
3B00
1E00
0E00
0C00
0C00
3F00
3F00
ENDCHAR
STARTCHAR 005A
ENCODING 90
SWIDTH 600 0
DWIDTH 10 0
BBX 8 10 1 0
BITMAP
FF
FF
C6
CC
1C
38
33
73
FF
FF
ENDCHAR
STARTCHAR 005B
ENCODING 91
SWIDTH 600 0
DWIDTH 10 0
BBX 6 14 2 -3
BITMAP
FC
FC
C0
C0
C0
C0
C0
C0
C0
C0
C0
C0
FC
FC
ENDCHAR
STARTCHAR 005C
ENCODING 92
SWIDTH 600 0
DWIDTH 10 0
BBX 8 14 1 -3
BITMAP
C0
60
60
70
30
38
18
18
0C
0C
06
06
07
03
ENDCHAR
STARTCHAR 005D
ENCODING 93
SWIDTH 600 0
DWIDTH 10 0
BBX 6 14 2 -3
BITMAP
FC
7C
0C
0C
0C
0C
0C
0C
0C
0C
0C
0C
7C
FC
ENDCHAR
STARTCHAR 005E
ENCODING 94
SWIDTH 600 0
DWIDTH 10 0
BBX 7 7 2 4
BITMAP
10
30
78
78
EC
CC
C6
ENDCHAR
STARTCHAR 005F
ENCODING 95
SWIDTH 600 0
DWIDTH 10 0
BBX 11 2 0 -4
BITMAP
FFC0
FFE0
ENDCHAR
STARTCHAR 0060
ENCODING 96
SWIDTH 600 0
DWIDTH 10 0
BBX 5 4 2 9
BITMAP
40
E0
70
18
ENDCHAR
STARTCHAR 0061
ENCODING 97
SWIDTH 600 0
DWIDTH 10 0
BBX 9 8 1 0
BITMAP
7C00
FE00
0600
7E00
FE00
C600
FF80
7B80
ENDCHAR
STARTCHAR 0062
ENCODING 98
SWIDTH 600 0
DWIDTH 10 0
BBX 9 11 0 0
BITMAP
F000
F000
3000
3F00
3F80
3180
3180
3180
3180
FF80
EF00
ENDCHAR
STARTCHAR 0063
ENCODING 99
SWIDTH 600 0
DWIDTH 10 0
BBX 8 8 1 0
BITMAP
3F
7F
E7
C3
C0
E1
7F
3E
ENDCHAR
STARTCHAR 0064
ENCODING 100
SWIDTH 600 0
DWIDTH 10 0
BBX 9 11 1 0
BITMAP
0F00
0F00
0300
3B00
7F00
C700
C300
C300
C700
7F80
3B80
ENDCHAR
STARTCHAR 0065
ENCODING 101
SWIDTH 600 0
DWIDTH 10 0
BBX 8 8 1 0
BITMAP
3C
7E
E3
FF
FF
E0
7F
3E
ENDCHAR
STARTCHAR 0066
ENCODING 102
SWIDTH 600 0
DWIDTH 10 0
BBX 8 11 1 0
BITMAP
0F
1F
38
38
FF
FF
38
38
38
FE
FE
ENDCHAR
STARTCHAR 0067
ENCODING 103
SWIDTH 600 0
DWIDTH 10 0
BBX 9 11 1 -3
BITMAP
3B80
FF80
C700
C300
C300
C700
FF00
3B00
0700
FE00
7C00
ENDCHAR
STARTCHAR 0068
ENCODING 104
SWIDTH 600 0
DWIDTH 10 0
BBX 10 11 0 0
BITMAP
F000
F000
3000
3700
3F80
3980
3180
3180
3180
7BC0
7BC0
ENDCHAR
STARTCHAR 0069
ENCODING 105
SWIDTH 600 0
DWIDTH 10 0
BBX 8 11 1 0
BITMAP
18
18
00
78
78
18
18
18
18
FF
FF
ENDCHAR
STARTCHAR 006A
ENCODING 106
SWIDTH 600 0
DWIDTH 10 0
BBX 7 14 1 -3
BITMAP
06
06
00
7E
7E
06
06
06
06
06
06
4E
FC
7C
ENDCHAR
STARTCHAR 006B
ENCODING 107
SWIDTH 600 0
DWIDTH 10 0
BBX 10 11 0 0
BITMAP
F000
7000
3000
37C0
37C0
3700
3E00
3E00
3300
7BC0
79C0
ENDCHAR
STARTCHAR 006C
ENCODING 108
SWIDTH 600 0
DWIDTH 10 0
BBX 8 11 1 0
BITMAP
78
78
18
18
18
18
18
18
18
FF
FF
ENDCHAR
STARTCHAR 006D
ENCODING 109
SWIDTH 600 0
DWIDTH 10 0
BBX 10 8 0 0
BITMAP
DD80
DFC0
6EC0
6CC0
6CC0
6CC0
6CC0
6CC0
ENDCHAR
STARTCHAR 006E
ENCODING 110
SWIDTH 600 0
DWIDTH 10 0
BBX 10 8 0 0
BITMAP
F700
7F80
3980
3180
3180
3180
7BC0
7BC0
ENDCHAR
STARTCHAR 006F
ENCODING 111
SWIDTH 600 0
DWIDTH 10 0
BBX 8 8 1 0
BITMAP
3C
7E
E3
C3
C3
E3
7E
3C
ENDCHAR
STARTCHAR 0070
ENCODING 112
SWIDTH 600 0
DWIDTH 10 0
BBX 9 11 0 -3
BITMAP
EF00
FF80
3180
3180
3180
3180
3F80
3F00
3000
F800
FC00
ENDCHAR
STARTCHAR 0071
ENCODING 113
SWIDTH 600 0
DWIDTH 10 0
BBX 9 11 1 -3
BITMAP
3B80
7F80
C700
C300
C300
C700
7F00
3B00
0300
0F80
0F80
ENDCHAR
STARTCHAR 0072
ENCODING 114
SWIDTH 600 0
DWIDTH 10 0
BBX 8 8 1 0
BITMAP
F7
FF
38
30
30
30
FE
FE
ENDCHAR
STARTCHAR 0073
ENCODING 115
SWIDTH 600 0
DWIDTH 10 0
BBX 8 8 1 0
BITMAP
7A
7F
E2
7C
3F
C3
FF
DE
ENDCHAR
STARTCHAR 0074
ENCODING 116
SWIDTH 600 0
DWIDTH 10 0
BBX 8 10 1 0
BITMAP
30
30
FF
FF
30
30
30
31
3F
1E
ENDCHAR
STARTCHAR 0075
ENCODING 117
SWIDTH 600 0
DWIDTH 10 0
BBX 10 8 0 0
BITMAP
F780
F780
3380
3380
3380
3380
3FC0
1DC0
ENDCHAR
STARTCHAR 0076
ENCODING 118
SWIDTH 600 0
DWIDTH 10 0
BBX 10 8 0 0
BITMAP
FBC0
FBC0
3380
3300
1B00
1E00
1E00
0C00
ENDCHAR
STARTCHAR 0077
ENCODING 119
SWIDTH 600 0
DWIDTH 10 0
BBX 10 8 0 0
BITMAP
F1C0
F1C0
6C80
6D80
7F80
7F80
3300
3300
ENDCHAR
STARTCHAR 0078
ENCODING 120
SWIDTH 600 0
DWIDTH 10 0
BBX 9 8 1 0
BITMAP
F780
F700
7600
3C00
3C00
6E00
FF80
FF80
ENDCHAR
STARTCHAR 0079
ENCODING 121
SWIDTH 600 0
DWIDTH 10 0
BBX 10 11 0 -3
BITMAP
FBC0
FBC0
3380
3300
1F00
1E00
0C00
0C00
1800
7800
7000
ENDCHAR
STARTCHAR 007A
ENCODING 122
SWIDTH 600 0
DWIDTH 10 0
BBX 8 8 1 0
BITMAP
FF
FF
CE
1C
38
73
FF
FF
ENDCHAR
STARTCHAR 007B
ENCODING 123
SWIDTH 600 0
DWIDTH 10 0
BBX 7 15 1 -4
BITMAP
0E
1E
18
18
18
18
F0
F0
38
18
18
18
18
1E
0E
ENDCHAR
STARTCHAR 007C
ENCODING 124
SWIDTH 600 0
DWIDTH 10 0
BBX 2 14 4 -3
BITMAP
C0
C0
C0
C0
C0
C0
C0
C0
C0
C0
C0
C0
C0
C0
ENDCHAR
STARTCHAR 007D
ENCODING 125
SWIDTH 600 0
DWIDTH 10 0
BBX 7 15 2 -4
BITMAP
E0
F0
38
38
30
38
1E
1E
18
30
30
38
30
F0
E0
ENDCHAR
STARTCHAR 007E
ENCODING 126
SWIDTH 600 0
DWIDTH 10 0
BBX 8 3 1 3
BITMAP
71
FF
4E
ENDCHAR
STARTCHAR 00A0
ENCODING 160
SWIDTH 600 0
DWIDTH 10 0
BBX 0 0 0 0
BITMAP
ENDCHAR
STARTCHAR 00A1
ENCODING 161
SWIDTH 600 0
DWIDTH 10 0
BBX 2 11 4 -3
BITMAP
C0
C0
C0
00
00
C0
C0
C0
C0
C0
C0
ENDCHAR
STARTCHAR 00A2
ENCODING 162
SWIDTH 600 0
DWIDTH 10 0
BBX 8 12 1 -1
BITMAP
18
18
3B
7F
FF
DB
D8
F9
7F
3E
18
18
ENDCHAR
STARTCHAR 00A3
ENCODING 163
SWIDTH 600 0
DWIDTH 10 0
BBX 8 10 1 0
BITMAP
3E
7E
66
60
FE
FE
30
70
FF
7F
ENDCHAR
STARTCHAR 00A4
ENCODING 164
SWIDTH 600 0
DWIDTH 10 0
BBX 8 9 1 1
BITMAP
C1
FF
7E
66
63
66
7E
FF
C1
ENDCHAR
STARTCHAR 00A5
ENCODING 165
SWIDTH 600 0
DWIDTH 10 0
BBX 10 10 0 0
BITMAP
FBC0
FBC0
3380
7380
7F80
7F80
7F80
0C00
3F00
3F00
ENDCHAR
STARTCHAR 00A6
ENCODING 166
SWIDTH 600 0
DWIDTH 10 0
BBX 2 14 4 -3
BITMAP
C0
C0
C0
C0
C0
C0
00
00
C0
C0
C0
C0
C0
C0
ENDCHAR
STARTCHAR 00A7
ENCODING 167
SWIDTH 600 0
DWIDTH 10 0
BBX 8 12 1 -2
BITMAP
3E
7E
62
70
FC
CE
73
3F
0E
66
7E
7C
ENDCHAR
STARTCHAR 00A8
ENCODING 168
SWIDTH 600 0
DWIDTH 10 0
BBX 6 2 2 9
BITMAP
CC
CC
ENDCHAR
STARTCHAR 00A9
ENCODING 169
SWIDTH 600 0
DWIDTH 10 0
BBX 10 10 0 0
BITMAP
1E00
3180
4E80
DEC0
D040
D040
DEC0
4E80
6180
1F00
ENDCHAR
STARTCHAR 00AA
ENCODING 170
SWIDTH 600 0
DWIDTH 10 0
BBX 7 6 2 4
BITMAP
F8
4C
FC
CC
DC
76
ENDCHAR
STARTCHAR 00AB
ENCODING 171
SWIDTH 600 0
DWIDTH 10 0
BBX 8 7 1 1
BITMAP
23
77
E6
CC
E6
77
23
ENDCHAR
STARTCHAR 00AC
ENCODING 172
SWIDTH 600 0
DWIDTH 10 0
BBX 8 5 1 2
BITMAP
FF
FF
03
03
03
ENDCHAR
STARTCHAR 00AD
ENCODING 173
SWIDTH 600 0
DWIDTH 10 0
BBX 7 2 2 3
BITMAP
FC
FE
ENDCHAR
STARTCHAR 00AE
ENCODING 174
SWIDTH 600 0
DWIDTH 10 0
BBX 8 9 1 3
BITMAP
3C
42
FD
B5
B5
BD
FD
42
3C
ENDCHAR
STARTCHAR 00AF
ENCODING 175
SWIDTH 600 0
DWIDTH 10 0
BBX 6 2 2 9
BITMAP
FC
FC
ENDCHAR
STARTCHAR 00B0
ENCODING 176
SWIDTH 600 0
DWIDTH 10 0
BBX 5 6 2 5
BITMAP
70
F8
D8
D8
F8
70
ENDCHAR
STARTCHAR 00B1
ENCODING 177
SWIDTH 600 0
DWIDTH 10 0
BBX 8 10 1 0
BITMAP
18
18
18
FF
FF
18
18
00
FF
FF
ENDCHAR
STARTCHAR 00B2
ENCODING 178
SWIDTH 600 0
DWIDTH 10 0
BBX 6 7 2 4
BITMAP
78
4C
4C
18
30
64
FC
ENDCHAR
STARTCHAR 00B3
ENCODING 179
SWIDTH 600 0
DWIDTH 10 0
BBX 6 7 2 4
BITMAP
78
CC
0C
38
0C
CC
F8
ENDCHAR
STARTCHAR 00B4
ENCODING 180
SWIDTH 600 0
DWIDTH 10 0
BBX 5 4 3 9
BITMAP
10
38
70
C0
ENDCHAR
STARTCHAR 00B5
ENCODING 181
SWIDTH 600 0
DWIDTH 10 0
BBX 7 11 2 -3
BITMAP
C6
C6
C6
C6
C6
CE
FE
F6
C0
C0
C0
ENDCHAR
STARTCHAR 00B6
ENCODING 182
SWIDTH 600 0
DWIDTH 10 0
BBX 8 13 1 -3
BITMAP
7F
FF
F2
F2
F2
72
12
12
12
12
12
12
12
ENDCHAR
STARTCHAR 00B7
ENCODING 183
SWIDTH 600 0
DWIDTH 10 0
BBX 2 3 4 3
BITMAP
C0
C0
C0
ENDCHAR
STARTCHAR 00B8
ENCODING 184
SWIDTH 600 0
DWIDTH 10 0
BBX 5 4 3 -4
BITMAP
60
70
18
F0
ENDCHAR
STARTCHAR 00B9
ENCODING 185
SWIDTH 600 0
DWIDTH 10 0
BBX 6 7 2 4
BITMAP
30
F0
70
30
30
30
7C
ENDCHAR
STARTCHAR 00BA
ENCODING 186
SWIDTH 600 0
DWIDTH 10 0
BBX 6 6 2 4
BITMAP
78
CC
C4
C4
EC
78
ENDCHAR
STARTCHAR 00BB
ENCODING 187
SWIDTH 600 0
DWIDTH 10 0
BBX 8 7 1 1
BITMAP
C4
EE
67
33
67
EE
C4
ENDCHAR
STARTCHAR 00BC
ENCODING 188
SWIDTH 600 0
DWIDTH 10 0
BBX 10 14 0 -2
BITMAP
2000
E000
A000
2000
2000
F880
0300
0600
1880
7180
4380
0280
07C0
0080
ENDCHAR
STARTCHAR 00BD
ENCODING 189
SWIDTH 600 0
DWIDTH 10 0
BBX 10 13 0 -2
BITMAP
E000
A000
2000
2000
F980
0700
0C00
33C0
6240
00C0
0180
0340
07C0
ENDCHAR
STARTCHAR 00BE
ENCODING 190
SWIDTH 600 0
DWIDTH 10 0
BBX 10 13 0 -2
BITMAP
F000
9800
7000
1800
F180
0300
0E00
1880
7180
4380
0280
07C0
0080
ENDCHAR
STARTCHAR 00BF
ENCODING 191
SWIDTH 600 0
DWIDTH 10 0
BBX 6 11 2 -3
BITMAP
38
38
00
10
30
70
E0
C4
C4
FC
7C
ENDCHAR
STARTCHAR 00C0
ENCODING 192
SWIDTH 600 0
DWIDTH 10 0
BBX 10 15 0 0
BITMAP
1000
3800
1C00
0600
0000
7E00
7E00
1E00
1300
3300
3F00
3F80
6180
F3C0
F3C0
ENDCHAR
STARTCHAR 00C1
ENCODING 193
SWIDTH 600 0
DWIDTH 10 0
BBX 10 15 0 0
BITMAP
0200
0600
1E00
1800
0000
7E00
7E00
1E00
1300
3300
3F00
3F80
6180
F3C0
F3C0
ENDCHAR
STARTCHAR 00C2
ENCODING 194
SWIDTH 600 0
DWIDTH 10 0
BBX 10 15 0 0
BITMAP
0800
1C00
3E00
3300
0000
7E00
7E00
1E00
1300
3300
3F00
3F80
6180
F3C0
F3C0
ENDCHAR
STARTCHAR 00C3
ENCODING 195
SWIDTH 600 0
DWIDTH 10 0
BBX 10 14 0 0
BITMAP
1900
3F00
2600
0000
7E00
7E00
1E00
1300
3300
3F00
3F80
6180
F3C0
F3C0
ENDCHAR
STARTCHAR 00C4
ENCODING 196
SWIDTH 600 0
DWIDTH 10 0
BBX 10 13 0 0
BITMAP
3300
3300
0000
7E00
7E00
1E00
1300
3300
3F00
3F80
6180
F3C0
F3C0
ENDCHAR
STARTCHAR 00C5
ENCODING 197
SWIDTH 600 0
DWIDTH 10 0
BBX 10 16 0 0
BITMAP
0C00
1E00
1200
1E00
0C00
0000
7E00
7E00
1E00
1300
3300
3F00
3F80
6180
F3C0
F3C0
ENDCHAR
STARTCHAR 00C6
ENCODING 198
SWIDTH 600 0
DWIDTH 10 0
BBX 10 10 0 0
BITMAP
7FC0
7FC0
34C0
3400
2700
7F00
7CC0
64C0
E7C0
E7C0
ENDCHAR
STARTCHAR 00C7
ENCODING 199
SWIDTH 600 0
DWIDTH 10 0
BBX 8 14 1 -4
BITMAP
3F
7F
E3
C3
C0
C0
C0
E1
7F
3E
18
1E
06
3C
ENDCHAR
STARTCHAR 00C8
ENCODING 200
SWIDTH 600 0
DWIDTH 10 0
BBX 9 15 0 0
BITMAP
1000
1800
1E00
0600
0000
FF80
7F80
3180
3180
3C00
3C00
3180
3180
7F80
FF80
ENDCHAR
STARTCHAR 00C9
ENCODING 201
SWIDTH 600 0
DWIDTH 10 0
BBX 9 15 0 0
BITMAP
0200
0700
0E00
1800
0000
FF80
7F80
3180
3180
3C00
3C00
3180
3180
7F80
FF80
ENDCHAR
STARTCHAR 00CA
ENCODING 202
SWIDTH 600 0
DWIDTH 10 0
BBX 9 15 0 0
BITMAP
0400
0E00
1F00
3100
0000
FF80
7F80
3180
3180
3C00
3C00
3180
3180
7F80
FF80
ENDCHAR
STARTCHAR 00CB
ENCODING 203
SWIDTH 600 0
DWIDTH 10 0
BBX 9 13 0 0
BITMAP
3B00
3B00
0000
FF80
7F80
3180
3180
3C00
3C00
3180
3180
7F80
FF80
ENDCHAR
STARTCHAR 00CC
ENCODING 204
SWIDTH 600 0
DWIDTH 10 0
BBX 8 15 1 0
BITMAP
20
70
38
0C
00
7F
7F
18
18
18
18
18
18
FF
FF
ENDCHAR
STARTCHAR 00CD
ENCODING 205
SWIDTH 600 0
DWIDTH 10 0
BBX 8 15 1 0
BITMAP
04
0E
1C
30
00
7F
7F
18
18
18
18
18
18
FF
FF
ENDCHAR
STARTCHAR 00CE
ENCODING 206
SWIDTH 600 0
DWIDTH 10 0
BBX 8 15 1 0
BITMAP
08
1C
3E
66
00
7F
7F
18
18
18
18
18
18
FF
FF
ENDCHAR
STARTCHAR 00CF
ENCODING 207
SWIDTH 600 0
DWIDTH 10 0
BBX 8 13 1 0
BITMAP
66
66
00
7F
7F
18
18
18
18
18
18
FF
FF
ENDCHAR
STARTCHAR 00D0
ENCODING 208
SWIDTH 600 0
DWIDTH 10 0
BBX 10 10 0 0
BITMAP
FE00
7F80
3180
3180
FDC0
FDC0
3180
3180
7F80
FE00
ENDCHAR
STARTCHAR 00D1
ENCODING 209
SWIDTH 600 0
DWIDTH 10 0
BBX 10 14 0 0
BITMAP
1900
3F00
2600
0000
F3C0
F3C0
7980
7D80
6D80
6780
6780
6380
FB80
F980
ENDCHAR
STARTCHAR 00D2
ENCODING 210
SWIDTH 600 0
DWIDTH 10 0
BBX 9 15 1 0
BITMAP
2000
7000
3C00
0C00
0000
3C00
7F00
E300
C380
C380
C380
C380
E300
7F00
3C00
ENDCHAR
STARTCHAR 00D3
ENCODING 211
SWIDTH 600 0
DWIDTH 10 0
BBX 9 15 1 0
BITMAP
0400
0E00
1C00
3000
0000
3C00
7F00
E300
C380
C380
C380
C380
E300
7F00
3C00
ENDCHAR
STARTCHAR 00D4
ENCODING 212
SWIDTH 600 0
DWIDTH 10 0
BBX 9 15 1 0
BITMAP
0800
1C00
3E00
6600
0000
3C00
7F00
E300
C380
C380
C380
C380
E300
7F00
3C00
ENDCHAR
STARTCHAR 00D5
ENCODING 213
SWIDTH 600 0
DWIDTH 10 0
BBX 9 14 1 0
BITMAP
3200
7E00
4C00
0000
3C00
7F00
E300
C380
C380
C380
C380
E300
7F00
3C00
ENDCHAR
STARTCHAR 00D6
ENCODING 214
SWIDTH 600 0
DWIDTH 10 0
BBX 9 13 1 0
BITMAP
6600
6600
0000
3C00
7F00
E300
C380
C380
C380
C380
E300
7F00
3C00
ENDCHAR
STARTCHAR 00D7
ENCODING 215
SWIDTH 600 0
DWIDTH 10 0
BBX 6 7 2 1
BITMAP
C4
EC
78
30
78
EC
C4
ENDCHAR
STARTCHAR 00D8
ENCODING 216
SWIDTH 600 0
DWIDTH 10 0
BBX 9 11 1 0
BITMAP
0100
3F00
7F00
E700
CF00
CB80
DB80
F380
E300
7F00
FC00
ENDCHAR
STARTCHAR 00D9
ENCODING 217
SWIDTH 600 0
DWIDTH 10 0
BBX 10 15 0 0
BITMAP
1000
3800
1C00
0600
0000
FBC0
FBC0
6180
6180
6180
6180
6180
7380
3F00
1E00
ENDCHAR
STARTCHAR 00DA
ENCODING 218
SWIDTH 600 0
DWIDTH 10 0
BBX 10 15 0 0
BITMAP
0200
0700
0E00
1800
0000
FBC0
FBC0
6180
6180
6180
6180
6180
7380
3F00
1E00
ENDCHAR
STARTCHAR 00DB
ENCODING 219
SWIDTH 600 0
DWIDTH 10 0
BBX 10 15 0 0
BITMAP
0400
0E00
1F00
3300
0000
FBC0
FBC0
6180
6180
6180
6180
6180
7380
3F00
1E00
ENDCHAR
STARTCHAR 00DC
ENCODING 220
SWIDTH 600 0
DWIDTH 10 0
BBX 10 13 0 0
BITMAP
3300
3300
0000
FBC0
FBC0
6180
6180
6180
6180
6180
7380
3F00
1E00
ENDCHAR
STARTCHAR 00DD
ENCODING 221
SWIDTH 600 0
DWIDTH 10 0
BBX 10 15 0 0
BITMAP
0200
0700
0E00
1800
0000
FBC0
FBC0
3380
3B00
1E00
0E00
0C00
0C00
3F00
3F00
ENDCHAR
STARTCHAR 00DE
ENCODING 222
SWIDTH 600 0
DWIDTH 10 0
BBX 8 10 1 0
BITMAP
FC
FC
3E
3F
33
33
3F
3E
FC
FC
ENDCHAR
STARTCHAR 00DF
ENCODING 223
SWIDTH 600 0
DWIDTH 10 0
BBX 9 11 0 0
BITMAP
1E00
3F00
3380
3380
3700
3700
3380
3180
3180
F780
F700
ENDCHAR
STARTCHAR 00E0
ENCODING 224
SWIDTH 600 0
DWIDTH 10 0
BBX 9 13 1 0
BITMAP
2000
3800
3C00
0C00
0000
7C00
FE00
0600
7E00
FE00
C600
FF80
7B80
ENDCHAR
STARTCHAR 00E1
ENCODING 225
SWIDTH 600 0
DWIDTH 10 0
BBX 9 13 1 0
BITMAP
0400
0C00
3C00
3000
0000
7C00
FE00
0600
7E00
FE00
C600
FF80
7B80
ENDCHAR
STARTCHAR 00E2
ENCODING 226
SWIDTH 600 0
DWIDTH 10 0
BBX 9 13 1 0
BITMAP
0800
1C00
3E00
6600
0000
7C00
FE00
0600
7E00
FE00
C600
FF80
7B80
ENDCHAR
STARTCHAR 00E3
ENCODING 227
SWIDTH 600 0
DWIDTH 10 0
BBX 9 12 1 0
BITMAP
3200
7E00
4C00
0000
7C00
FE00
0600
7E00
FE00
C600
FF80
7B80
ENDCHAR
STARTCHAR 00E4
ENCODING 228
SWIDTH 600 0
DWIDTH 10 0
BBX 9 11 1 0
BITMAP
6600
6600
0000
7C00
FE00
0600
7E00
FE00
C600
FF80
7B80
ENDCHAR
STARTCHAR 00E5
ENCODING 229
SWIDTH 600 0
DWIDTH 10 0
BBX 9 14 1 0
BITMAP
1800
3C00
2400
3C00
1C00
0000
7C00
FE00
0600
7E00
FE00
C600
FF80
7B80
ENDCHAR
STARTCHAR 00E6
ENCODING 230
SWIDTH 600 0
DWIDTH 10 0
BBX 10 8 0 0
BITMAP
7B80
FF80
0CC0
7FC0
FFC0
CC00
FFC0
7780
ENDCHAR
STARTCHAR 00E7
ENCODING 231
SWIDTH 600 0
DWIDTH 10 0
BBX 8 12 1 -4
BITMAP
3F
7F
E7
C3
C0
E1
7F
3E
18
1C
06
3C
ENDCHAR
STARTCHAR 00E8
ENCODING 232
SWIDTH 600 0
DWIDTH 10 0
BBX 8 13 1 0
BITMAP
20
30
3C
0C
00
3C
7E
E3
FF
FF
E0
7F
3E
ENDCHAR
STARTCHAR 00E9
ENCODING 233
SWIDTH 600 0
DWIDTH 10 0
BBX 8 13 1 0
BITMAP
04
0E
1C
30
00
3C
7E
E3
FF
FF
E0
7F
3E
ENDCHAR
STARTCHAR 00EA
ENCODING 234
SWIDTH 600 0
DWIDTH 10 0
BBX 8 13 1 0
BITMAP
08
1C
3E
62
00
3C
7E
E3
FF
FF
E0
7F
3E
ENDCHAR
STARTCHAR 00EB
ENCODING 235
SWIDTH 600 0
DWIDTH 10 0
BBX 8 11 1 0
BITMAP
66
66
00
3C
7E
E3
FF
FF
E0
7F
3E
ENDCHAR
STARTCHAR 00EC
ENCODING 236
SWIDTH 600 0
DWIDTH 10 0
BBX 8 13 1 0
BITMAP
20
70
38
0C
00
78
78
18
18
18
18
FF
FF
ENDCHAR
STARTCHAR 00ED
ENCODING 237
SWIDTH 600 0
DWIDTH 10 0
BBX 8 13 1 0
BITMAP
04
0C
3C
30
00
78
78
18
18
18
18
FF
FF
ENDCHAR
STARTCHAR 00EE
ENCODING 238
SWIDTH 600 0
DWIDTH 10 0
BBX 8 13 1 0
BITMAP
08
1C
3E
66
00
78
78
18
18
18
18
FF
FF
ENDCHAR
STARTCHAR 00EF
ENCODING 239
SWIDTH 600 0
DWIDTH 10 0
BBX 8 11 1 0
BITMAP
66
66
00
78
78
18
18
18
18
FF
FF
ENDCHAR
STARTCHAR 00F0
ENCODING 240
SWIDTH 600 0
DWIDTH 10 0
BBX 8 11 1 0
BITMAP
36
3C
3E
3E
7F
E7
C3
C3
E7
7E
3C
ENDCHAR
STARTCHAR 00F1
ENCODING 241
SWIDTH 600 0
DWIDTH 10 0
BBX 10 12 0 0
BITMAP
1900
3F00
2600
0000
F700
7F80
3980
3180
3180
3180
7BC0
7BC0
ENDCHAR
STARTCHAR 00F2
ENCODING 242
SWIDTH 600 0
DWIDTH 10 0
BBX 8 13 1 0
BITMAP
20
70
3C
0C
00
3C
7E
E3
C3
C3
E3
7E
3C
ENDCHAR
STARTCHAR 00F3
ENCODING 243
SWIDTH 600 0
DWIDTH 10 0
BBX 8 13 1 0
BITMAP
04
0E
1C
30
00
3C
7E
E3
C3
C3
E3
7E
3C
ENDCHAR
STARTCHAR 00F4
ENCODING 244
SWIDTH 600 0
DWIDTH 10 0
BBX 8 13 1 0
BITMAP
08
1C
3E
66
00
3C
7E
E3
C3
C3
E3
7E
3C
ENDCHAR
STARTCHAR 00F5
ENCODING 245
SWIDTH 600 0
DWIDTH 10 0
BBX 8 12 1 0
BITMAP
32
7E
4C
00
3C
7E
E3
C3
C3
E3
7E
3C
ENDCHAR
STARTCHAR 00F6
ENCODING 246
SWIDTH 600 0
DWIDTH 10 0
BBX 8 11 1 0
BITMAP
66
66
00
3C
7E
E3
C3
C3
E3
7E
3C
ENDCHAR
STARTCHAR 00F7
ENCODING 247
SWIDTH 600 0
DWIDTH 10 0
BBX 8 9 1 1
BITMAP
18
18
00
00
FF
FF
00
18
18
ENDCHAR
STARTCHAR 00F8
ENCODING 248
SWIDTH 600 0
DWIDTH 10 0
BBX 9 9 1 0
BITMAP
0100
3F80
7F00
E700
CF00
DB00
F300
7E00
FC00
ENDCHAR
STARTCHAR 00F9
ENCODING 249
SWIDTH 600 0
DWIDTH 10 0
BBX 10 13 0 0
BITMAP
1000
3800
1C00
0600
0000
F780
F780
3380
3380
3380
3380
3FC0
1DC0
ENDCHAR
STARTCHAR 00FA
ENCODING 250
SWIDTH 600 0
DWIDTH 10 0
BBX 10 13 0 0
BITMAP
0200
0700
0E00
1800
0000
F780
F780
3380
3380
3380
3380
3FC0
1DC0
ENDCHAR
STARTCHAR 00FB
ENCODING 251
SWIDTH 600 0
DWIDTH 10 0
BBX 10 13 0 0
BITMAP
0400
0C00
3F00
3300
0000
F780
F780
3380
3380
3380
3380
3FC0
1DC0
ENDCHAR
STARTCHAR 00FC
ENCODING 252
SWIDTH 600 0
DWIDTH 10 0
BBX 10 11 0 0
BITMAP
3300
3300
0000
F780
F780
3380
3380
3380
3380
3FC0
1DC0
ENDCHAR
STARTCHAR 00FD
ENCODING 253
SWIDTH 600 0
DWIDTH 10 0
BBX 10 16 0 -3
BITMAP
0200
0700
0E00
1800
0000
FBC0
FBC0
3380
3300
1F00
1E00
0C00
0C00
1800
7800
7000
ENDCHAR
STARTCHAR 00FE
ENCODING 254
SWIDTH 600 0
DWIDTH 10 0
BBX 9 14 0 -3
BITMAP
F000
F000
3000
3F00
3F80
3180
3180
3180
3180
3F80
3F00
3000
F800
FC00
ENDCHAR
STARTCHAR 00FF
ENCODING 255
SWIDTH 600 0
DWIDTH 10 0
BBX 10 14 0 -3
BITMAP
3300
3300
0000
FBC0
FBC0
3380
3300
1F00
1E00
0C00
0C00
1800
7800
7000
ENDCHAR
STARTCHAR 0100
ENCODING 256
SWIDTH 600 0
DWIDTH 10 0
BBX 10 13 0 0
BITMAP
3E00
3E00
0000
7E00
7E00
1E00
1300
3300
3F00
3F80
6180
F3C0
F3C0
ENDCHAR
STARTCHAR 0101
ENCODING 257
SWIDTH 600 0
DWIDTH 10 0
BBX 9 11 1 0
BITMAP
7E00
7E00
0000
7C00
FE00
0600
7E00
FE00
C600
FF80
7B80
ENDCHAR
STARTCHAR 0102
ENCODING 258
SWIDTH 600 0
DWIDTH 10 0
BBX 10 14 0 0
BITMAP
2300
3F00
1E00
0000
7E00
7E00
1E00
1300
3300
3F00
3F80
6180
F3C0
F3C0
ENDCHAR
STARTCHAR 0103
ENCODING 259
SWIDTH 600 0
DWIDTH 10 0
BBX 9 12 1 0
BITMAP
6200
7E00
3C00
0000
7C00
FE00
0600
7E00
FE00
C600
FF80
7B80
ENDCHAR
STARTCHAR 0104
ENCODING 260
SWIDTH 600 0
DWIDTH 10 0
BBX 10 14 0 -4
BITMAP
7E00
7E00
1E00
1B00
3300
3F00
3F80
6180
F3C0
F3C0
0100
0300
03C0
03C0
ENDCHAR
STARTCHAR 0105
ENCODING 261
SWIDTH 600 0
DWIDTH 10 0
BBX 9 12 1 -4
BITMAP
7C00
FE00
0600
7E00
FE00
C600
FF80
7B80
0600
0600
0780
0780
ENDCHAR
STARTCHAR 0106
ENCODING 262
SWIDTH 600 0
DWIDTH 10 0
BBX 8 15 1 0
BITMAP
04
0E
1C
10
00
3F
7F
E3
C3
C0
C0
C0
E1
7F
3E
ENDCHAR
STARTCHAR 0107
ENCODING 263
SWIDTH 600 0
DWIDTH 10 0
BBX 8 13 1 0
BITMAP
04
0E
1C
30
00
3F
7F
E7
C3
C0
E1
7F
3E
ENDCHAR
STARTCHAR 0108
ENCODING 264
SWIDTH 600 0
DWIDTH 10 0
BBX 8 15 1 0
BITMAP
08
1C
3E
62
00
3F
7F
E3
C3
C0
C0
C0
E1
7F
3E
ENDCHAR
STARTCHAR 0109
ENCODING 265
SWIDTH 600 0
DWIDTH 10 0
BBX 8 13 1 0
BITMAP
08
1C
3E
62
00
3F
7F
E7
C3
C0
E1
7F
3E
ENDCHAR
STARTCHAR 010A
ENCODING 266
SWIDTH 600 0
DWIDTH 10 0
BBX 8 13 1 0
BITMAP
18
18
00
3F
7F
E3
C3
C0
C0
C0
E1
7F
3E
ENDCHAR
STARTCHAR 010B
ENCODING 267
SWIDTH 600 0
DWIDTH 10 0
BBX 8 11 1 0
BITMAP
18
18
00
3F
7F
E7
C3
C0
E1
7F
3E
ENDCHAR
STARTCHAR 010C
ENCODING 268
SWIDTH 600 0
DWIDTH 10 0
BBX 8 15 1 0
BITMAP
22
76
3C
08
00
3F
7F
E3
C3
C0
C0
C0
E1
7F
3E
ENDCHAR
STARTCHAR 010D
ENCODING 269
SWIDTH 600 0
DWIDTH 10 0
BBX 8 13 1 0
BITMAP
42
76
3C
18
00
3F
7F
E7
C3
C0
E1
7F
3E
ENDCHAR
STARTCHAR 010E
ENCODING 270
SWIDTH 600 0
DWIDTH 10 0
BBX 10 15 0 0
BITMAP
2100
3700
1E00
0C00
0000
FE00
7F80
3180
3180
31C0
31C0
3180
3180
7F80
FE00
ENDCHAR
STARTCHAR 010F
ENCODING 271
SWIDTH 600 0
DWIDTH 10 0
BBX 11 11 1 0
BITMAP
1EE0
1EC0
06C0
7680
FE00
CE00
C600
C600
CE00
FF00
7700
ENDCHAR
STARTCHAR 0110
ENCODING 272
SWIDTH 600 0
DWIDTH 10 0
BBX 10 10 0 0
BITMAP
FE00
7F80
3180
3180
7DC0
7DC0
3180
3180
7F80
FE00
ENDCHAR
STARTCHAR 0111
ENCODING 273
SWIDTH 600 0
DWIDTH 10 0
BBX 9 11 1 0
BITMAP
0600
1F80
1F80
0600
3E00
7E00
E600
C600
C600
7F80
3B80
ENDCHAR
STARTCHAR 0112
ENCODING 274
SWIDTH 600 0
DWIDTH 10 0
BBX 9 13 0 0
BITMAP
1F00
3F00
0000
FF80
7F80
3180
3180
3C00
3C00
3180
3180
7F80
FF80
ENDCHAR
STARTCHAR 0113
ENCODING 275
SWIDTH 600 0
DWIDTH 10 0
BBX 8 11 1 0
BITMAP
7E
7E
00
3C
7E
E3
FF
FF
E0
7F
3E
ENDCHAR
STARTCHAR 0114
ENCODING 276
SWIDTH 600 0
DWIDTH 10 0
BBX 9 14 0 0
BITMAP
3100
3F00
1E00
0000
FF80
7F80
3180
3180
3C00
3C00
3180
3180
7F80
FF80
ENDCHAR
STARTCHAR 0115
ENCODING 277
SWIDTH 600 0
DWIDTH 10 0
BBX 8 12 1 0
BITMAP
62
3E
3C
00
3C
7E
E3
FF
FF
E0
7F
3E
ENDCHAR
STARTCHAR 0116
ENCODING 278
SWIDTH 600 0
DWIDTH 10 0
BBX 9 13 0 0
BITMAP
0C00
0C00
0000
FF80
7F80
3180
3180
3C00
3C00
3180
3180
7F80
FF80
ENDCHAR
STARTCHAR 0117
ENCODING 279
SWIDTH 600 0
DWIDTH 10 0
BBX 8 11 1 0
BITMAP
18
18
00
3C
7E
E3
FF
FF
E0
7F
3E
ENDCHAR
STARTCHAR 0118
ENCODING 280
SWIDTH 600 0
DWIDTH 10 0
BBX 9 14 0 -4
BITMAP
FF80
7F80
3180
3180
3C00
3C00
3180
3180
7F80
FF80
0300
0600
0780
0380
ENDCHAR
STARTCHAR 0119
ENCODING 281
SWIDTH 600 0
DWIDTH 10 0
BBX 8 12 1 -4
BITMAP
3C
7E
E3
FF
FF
E0
7F
3E
0C
0C
0F
0F
ENDCHAR
STARTCHAR 011A
ENCODING 282
SWIDTH 600 0
DWIDTH 10 0
BBX 9 15 0 0
BITMAP
2100
3B00
1E00
0C00
0000
FF80
7F80
3180
3180
3C00
3C00
3180
3180
7F80
FF80
ENDCHAR
STARTCHAR 011B
ENCODING 283
SWIDTH 600 0
DWIDTH 10 0
BBX 8 13 1 0
BITMAP
42
76
3C
18
00
3C
7E
E3
FF
FF
E0
7F
3E
ENDCHAR
STARTCHAR 011C
ENCODING 284
SWIDTH 600 0
DWIDTH 10 0
BBX 9 15 1 0
BITMAP
0800
1C00
3E00
6200
0000
3F00
7F00
E300
C300
C000
CF80
CF80
E300
7F00
3E00
ENDCHAR
STARTCHAR 011D
ENCODING 285
SWIDTH 600 0
DWIDTH 10 0
BBX 9 16 1 -3
BITMAP
0800
1C00
3E00
6600
0000
3B80
FF80
C700
C300
C300
C700
FF00
3B00
0700
FE00
7C00
ENDCHAR
STARTCHAR 011E
ENCODING 286
SWIDTH 600 0
DWIDTH 10 0
BBX 9 14 1 0
BITMAP
6200
3E00
3C00
0000
3F00
7F00
E300
C300
C000
CF80
CF80
E300
7F00
3E00
ENDCHAR
STARTCHAR 011F
ENCODING 287
SWIDTH 600 0
DWIDTH 10 0
BBX 9 15 1 -3
BITMAP
6200
7E00
3C00
0000
3B80
FF80
C700
C300
C300
C700
FF00
3B00
0700
FE00
7C00
ENDCHAR
STARTCHAR 0120
ENCODING 288
SWIDTH 600 0
DWIDTH 10 0
BBX 9 13 1 0
BITMAP
1800
1800
0000
3F00
7F00
E300
C300
C000
CF80
CF80
E300
7F00
3E00
ENDCHAR
STARTCHAR 0121
ENCODING 289
SWIDTH 600 0
DWIDTH 10 0
BBX 9 14 1 -3
BITMAP
1800
1800
0000
3B80
FF80
C700
C300
C300
C700
FF00
3B00
0700
FE00
7C00
ENDCHAR
STARTCHAR 0122
ENCODING 290
SWIDTH 600 0
DWIDTH 10 0
BBX 9 15 1 -5
BITMAP
3F00
7F00
E300
C300
C000
CF80
CF80
E300
7F00
3E00
0000
0000
1800
1800
1000
ENDCHAR
STARTCHAR 0123
ENCODING 291
SWIDTH 600 0
DWIDTH 10 0
BBX 9 16 1 -3
BITMAP
0C00
1800
1800
0000
0000
3B80
FF80
C700
C300
C300
C700
FF00
3B00
0700
FE00
7C00
ENDCHAR
STARTCHAR 0124
ENCODING 292
SWIDTH 600 0
DWIDTH 10 0
BBX 10 15 0 0
BITMAP
0400
0E00
1F00
3300
0000
FBC0
FBC0
6180
6180
7F80
7F80
6180
6180
FBC0
FBC0
ENDCHAR
STARTCHAR 0125
ENCODING 293
SWIDTH 600 0
DWIDTH 10 0
BBX 10 16 0 0
BITMAP
0400
0C00
3F00
3300
0000
F000
F000
3000
3700
3F00
3380
3180
3180
3180
7BC0
FBC0
ENDCHAR
STARTCHAR 0126
ENCODING 294
SWIDTH 600 0
DWIDTH 10 0
BBX 10 10 0 0
BITMAP
FBC0
6180
FFC0
6180
7F80
7F80
6180
6180
FBC0
FBC0
ENDCHAR
STARTCHAR 0127
ENCODING 295
SWIDTH 600 0
DWIDTH 10 0
BBX 10 11 0 0
BITMAP
3000
FC00
FC00
3000
3700
3F80
3180
3180
3180
7BC0
7BC0
ENDCHAR
STARTCHAR 0128
ENCODING 296
SWIDTH 600 0
DWIDTH 10 0
BBX 8 14 1 0
BITMAP
32
7E
4C
00
7F
7F
18
18
18
18
18
18
FF
FF
ENDCHAR
STARTCHAR 0129
ENCODING 297
SWIDTH 600 0
DWIDTH 10 0
BBX 8 12 1 0
BITMAP
32
7E
4C
00
78
78
18
18
18
18
FF
FF
ENDCHAR
STARTCHAR 012A
ENCODING 298
SWIDTH 600 0
DWIDTH 10 0
BBX 8 13 1 0
BITMAP
7E
7E
00
7F
7F
18
18
18
18
18
18
FF
FF
ENDCHAR
STARTCHAR 012B
ENCODING 299
SWIDTH 600 0
DWIDTH 10 0
BBX 8 11 1 0
BITMAP
7E
7E
00
78
78
18
18
18
18
FF
FF
ENDCHAR
STARTCHAR 012C
ENCODING 300
SWIDTH 600 0
DWIDTH 10 0
BBX 8 14 1 0
BITMAP
62
7E
3C
00
7F
7F
18
18
18
18
18
18
FF
FF
ENDCHAR
STARTCHAR 012D
ENCODING 301
SWIDTH 600 0
DWIDTH 10 0
BBX 8 12 1 0
BITMAP
62
7E
3C
00
78
78
18
18
18
18
FF
FF
ENDCHAR
STARTCHAR 012E
ENCODING 302
SWIDTH 600 0
DWIDTH 10 0
BBX 8 14 1 -4
BITMAP
7F
7F
18
18
18
18
18
18
FF
FF
10
30
3C
3C
ENDCHAR
STARTCHAR 012F
ENCODING 303
SWIDTH 600 0
DWIDTH 10 0
BBX 8 15 1 -4
BITMAP
18
18
00
78
78
18
18
18
18
FF
FF
10
30
3C
3C
ENDCHAR
STARTCHAR 0130
ENCODING 304
SWIDTH 600 0
DWIDTH 10 0
BBX 8 13 1 0
BITMAP
18
18
00
7F
7F
18
18
18
18
18
18
FF
FF
ENDCHAR
STARTCHAR 0131
ENCODING 305
SWIDTH 600 0
DWIDTH 10 0
BBX 8 8 1 0
BITMAP
78
78
18
18
18
18
FF
FF
ENDCHAR
STARTCHAR 0132
ENCODING 306
SWIDTH 600 0
DWIDTH 10 0
BBX 10 10 0 0
BITMAP
F3C0
F3C0
6180
6180
6180
6180
6D80
6D80
FF80
F780
ENDCHAR
STARTCHAR 0133
ENCODING 307
SWIDTH 600 0
DWIDTH 10 0
BBX 9 14 0 -3
BITMAP
3180
3180
0000
F780
F780
3180
3180
3180
3180
FD80
FD80
0180
0F80
0F00
ENDCHAR
STARTCHAR 0134
ENCODING 308
SWIDTH 600 0
DWIDTH 10 0
BBX 9 15 1 0
BITMAP
0400
0E00
1F00
3100
0000
3F80
3F80
0600
0600
0600
C600
C600
CE00
FC00
7800
ENDCHAR
STARTCHAR 0135
ENCODING 309
SWIDTH 600 0
DWIDTH 10 0
BBX 8 16 1 -3
BITMAP
08
0C
3F
33
00
7E
7E
06
06
06
06
06
06
4E
FC
7C
ENDCHAR
STARTCHAR 0136
ENCODING 310
SWIDTH 600 0
DWIDTH 10 0
BBX 10 15 0 -5
BITMAP
FBC0
FBC0
3300
3600
3C00
3F00
3300
3380
F9C0
F9C0
0000
0000
0C00
0C00
0800
ENDCHAR
STARTCHAR 0137
ENCODING 311
SWIDTH 600 0
DWIDTH 10 0
BBX 10 16 0 -5
BITMAP
F000
7000
3000
37C0
37C0
3700
3E00
3E00
3300
7BC0
79C0
0000
0000
0C00
0C00
0800
ENDCHAR
STARTCHAR 0139
ENCODING 313
SWIDTH 600 0
DWIDTH 10 0
BBX 9 15 0 0
BITMAP
0400
0C00
3C00
3000
0000
FE00
7E00
3000
3000
3000
3180
3180
3180
7F80
FF80
ENDCHAR
STARTCHAR 013A
ENCODING 314
SWIDTH 600 0
DWIDTH 10 0
BBX 8 16 1 0
BITMAP
04
0E
1C
30
00
78
78
18
18
18
18
18
18
18
FF
FF
ENDCHAR
STARTCHAR 013B
ENCODING 315
SWIDTH 600 0
DWIDTH 10 0
BBX 9 15 0 -5
BITMAP
FE00
7E00
3000
3000
3000
3180
3180
3180
7F80
FF80
0000
0000
0C00
0C00
0800
ENDCHAR
STARTCHAR 013C
ENCODING 316
SWIDTH 600 0
DWIDTH 10 0
BBX 8 16 1 -5
BITMAP
78
78
18
18
18
18
18
18
18
FF
FF
00
00
18
18
10
ENDCHAR
STARTCHAR 013D
ENCODING 317
SWIDTH 600 0
DWIDTH 10 0
BBX 10 10 0 0
BITMAP
FEC0
7EC0
3180
3180
3000
3180
3180
3180
7F80
FF80
ENDCHAR
STARTCHAR 013E
ENCODING 318
SWIDTH 600 0
DWIDTH 10 0
BBX 9 11 1 0
BITMAP
F980
F980
1B00
1B00
1800
1800
1800
1800
1800
FF00
FF00
ENDCHAR
STARTCHAR 013F
ENCODING 319
SWIDTH 600 0
DWIDTH 10 0
BBX 9 10 0 0
BITMAP
FE00
7E00
3300
3700
3300
3000
3180
3180
7F80
FF80
ENDCHAR
STARTCHAR 0140
ENCODING 320
SWIDTH 600 0
DWIDTH 10 0
BBX 9 11 1 0
BITMAP
F800
F800
1800
1800
1B80
1B80
1800
1800
1800
FF00
FF00
ENDCHAR
STARTCHAR 0141
ENCODING 321
SWIDTH 600 0
DWIDTH 10 0
BBX 9 10 0 0
BITMAP
FE00
7E00
3600
3E00
3800
7180
F180
3180
7F80
FF80
ENDCHAR
STARTCHAR 0142
ENCODING 322
SWIDTH 600 0
DWIDTH 10 0
BBX 8 11 1 0
BITMAP
78
78
18
1A
1F
3C
78
58
18
FF
FF
ENDCHAR
STARTCHAR 0143
ENCODING 323
SWIDTH 600 0
DWIDTH 10 0
BBX 10 15 0 0
BITMAP
0200
0700
0E00
1800
0000
F3C0
F3C0
7980
7D80
6D80
6780
6780
6380
FB80
F980
ENDCHAR
STARTCHAR 0144
ENCODING 324
SWIDTH 600 0
DWIDTH 10 0
BBX 10 13 0 0
BITMAP
0200
0700
0E00
1800
0000
F700
7F80
3980
3180
3180
3180
7BC0
7BC0
ENDCHAR
STARTCHAR 0145
ENCODING 325
SWIDTH 600 0
DWIDTH 10 0
BBX 10 15 0 -5
BITMAP
F3C0
F3C0
7980
7D80
6D80
6780
6780
6380
FB80
F980
0000
0000
0C00
0C00
0800
ENDCHAR
STARTCHAR 0146
ENCODING 326
SWIDTH 600 0
DWIDTH 10 0
BBX 10 13 0 -5
BITMAP
F700
7F80
3980
3180
3180
3180
7BC0
7BC0
0000
0000
0C00
0C00
0800
ENDCHAR
STARTCHAR 0147
ENCODING 327
SWIDTH 600 0
DWIDTH 10 0
BBX 10 15 0 0
BITMAP
2100
3B00
1E00
0C00
0000
F3C0
F3C0
7980
7D80
6D80
6780
6780
6380
FB80
F980
ENDCHAR
STARTCHAR 0148
ENCODING 328
SWIDTH 600 0
DWIDTH 10 0
BBX 10 13 0 0
BITMAP
2100
3B00
1E00
0C00
0000
F700
7F80
3980
3180
3180
3180
7BC0
7BC0
ENDCHAR
STARTCHAR 014A
ENCODING 330
SWIDTH 600 0
DWIDTH 10 0
BBX 10 13 0 -3
BITMAP
F3C0
F3C0
7980
7D80
6D80
6780
6780
6380
FB80
F980
0180
0F80
0F00
ENDCHAR
STARTCHAR 014B
ENCODING 331
SWIDTH 600 0
DWIDTH 10 0
BBX 8 11 1 -3
BITMAP
EE
FF
73
63
63
63
F3
F3
03
1F
1E
ENDCHAR
STARTCHAR 014C
ENCODING 332
SWIDTH 600 0
DWIDTH 10 0
BBX 9 13 1 0
BITMAP
7E00
7E00
0000
3C00
7F00
E300
C380
C380
C380
C380
E300
7F00
3C00
ENDCHAR
STARTCHAR 014D
ENCODING 333
SWIDTH 600 0
DWIDTH 10 0
BBX 8 11 1 0
BITMAP
7E
7E
00
3C
7E
E3
C3
C3
E3
7E
3C
ENDCHAR
STARTCHAR 014E
ENCODING 334
SWIDTH 600 0
DWIDTH 10 0
BBX 9 14 1 0
BITMAP
6200
7E00
3C00
0000
3C00
7F00
E300
C380
C380
C380
C380
E300
7F00
3C00
ENDCHAR
STARTCHAR 014F
ENCODING 335
SWIDTH 600 0
DWIDTH 10 0
BBX 8 12 1 0
BITMAP
62
7E
3C
00
3C
7E
E3
C3
C3
E3
7E
3C
ENDCHAR
STARTCHAR 0150
ENCODING 336
SWIDTH 600 0
DWIDTH 10 0
BBX 9 14 1 0
BITMAP
1980
3300
6600
0000
3C00
7F00
E300
C380
C380
C380
C380
E300
7F00
3C00
ENDCHAR
STARTCHAR 0151
ENCODING 337
SWIDTH 600 0
DWIDTH 10 0
BBX 9 12 1 0
BITMAP
1980
3300
6600
0000
3C00
7E00
E300
C300
C300
E300
7E00
3C00
ENDCHAR
STARTCHAR 0152
ENCODING 338
SWIDTH 600 0
DWIDTH 10 0
BBX 9 10 1 0
BITMAP
3F80
7F80
D980
D800
DE00
DE00
D980
D980
7F80
3F80
ENDCHAR
STARTCHAR 0153
ENCODING 339
SWIDTH 600 0
DWIDTH 10 0
BBX 10 8 0 0
BITMAP
7B80
7F80
CCC0
CFC0
CFC0
CC00
7FC0
7B80
ENDCHAR
STARTCHAR 0154
ENCODING 340
SWIDTH 600 0
DWIDTH 10 0
BBX 10 15 0 0
BITMAP
0200
0700
0E00
1800
0000
FF00
7F80
3180
3180
3F80
3E00
3300
3380
79C0
F9C0
ENDCHAR
STARTCHAR 0155
ENCODING 341
SWIDTH 600 0
DWIDTH 10 0
BBX 8 13 1 0
BITMAP
02
06
1E
18
00
F7
FF
38
30
30
30
FE
FE
ENDCHAR
STARTCHAR 0156
ENCODING 342
SWIDTH 600 0
DWIDTH 10 0
BBX 10 15 0 -5
BITMAP
FF00
7F80
3180
3180
3F80
3E00
3300
3380
79C0
F9C0
0000
0000
0C00
0C00
0800
ENDCHAR
STARTCHAR 0157
ENCODING 343
SWIDTH 600 0
DWIDTH 10 0
BBX 8 13 1 -5
BITMAP
F7
FF
38
30
30
30
FE
FE
00
00
30
30
20
ENDCHAR
STARTCHAR 0158
ENCODING 344
SWIDTH 600 0
DWIDTH 10 0
BBX 10 15 0 0
BITMAP
2100
3700
1E00
0C00
0000
FF00
7F80
3180
3180
3F80
3E00
3300
3380
79C0
F9C0
ENDCHAR
STARTCHAR 0159
ENCODING 345
SWIDTH 600 0
DWIDTH 10 0
BBX 8 13 1 0
BITMAP
22
76
3C
18
00
F7
FF
38
30
30
30
FE
FE
ENDCHAR
STARTCHAR 015A
ENCODING 346
SWIDTH 600 0
DWIDTH 10 0
BBX 8 15 1 0
BITMAP
04
0E
1C
30
00
3B
7F
E3
E0
7C
1F
C3
E3
FF
DE
ENDCHAR
STARTCHAR 015B
ENCODING 347
SWIDTH 600 0
DWIDTH 10 0
BBX 8 13 1 0
BITMAP
04
0E
1C
30
00
7A
7F
E2
7C
3F
C3
FF
DE
ENDCHAR
STARTCHAR 015C
ENCODING 348
SWIDTH 600 0
DWIDTH 10 0
BBX 8 15 1 0
BITMAP
08
1C
3E
66
00
3B
7F
E3
E0
7C
1F
C3
E3
FF
DE
ENDCHAR
STARTCHAR 015D
ENCODING 349
SWIDTH 600 0
DWIDTH 10 0
BBX 8 13 1 0
BITMAP
08
18
7E
66
00
7A
7F
E2
7C
3F
C3
FF
DE
ENDCHAR
STARTCHAR 015E
ENCODING 350
SWIDTH 600 0
DWIDTH 10 0
BBX 8 14 1 -4
BITMAP
3B
7F
E3
E0
7C
1F
C3
E3
FF
DE
1C
06
26
3C
ENDCHAR
STARTCHAR 015F
ENCODING 351
SWIDTH 600 0
DWIDTH 10 0
BBX 8 12 1 -4
BITMAP
7A
7F
E2
7C
3F
C3
FF
DE
18
1E
06
3C
ENDCHAR
STARTCHAR 0160
ENCODING 352
SWIDTH 600 0
DWIDTH 10 0
BBX 8 15 1 0
BITMAP
42
76
3C
18
00
3B
7F
E3
E0
7C
1F
C3
E3
FF
DE
ENDCHAR
STARTCHAR 0161
ENCODING 353
SWIDTH 600 0
DWIDTH 10 0
BBX 8 13 1 0
BITMAP
42
66
3C
18
00
7A
7F
E2
7C
3F
C3
FF
DE
ENDCHAR
STARTCHAR 0162
ENCODING 354
SWIDTH 600 0
DWIDTH 10 0
BBX 8 14 1 -4
BITMAP
FF
FF
D9
D9
99
18
18
18
7E
7E
18
1C
06
3C
ENDCHAR
STARTCHAR 0163
ENCODING 355
SWIDTH 600 0
DWIDTH 10 0
BBX 8 14 1 -4
BITMAP
30
30
FF
FF
30
30
30
31
3F
1E
08
0E
06
3E
ENDCHAR
STARTCHAR 0164
ENCODING 356
SWIDTH 600 0
DWIDTH 10 0
BBX 8 15 1 0
BITMAP
42
76
3C
18
00
FF
FF
D9
D9
99
18
18
18
7E
7E
ENDCHAR
STARTCHAR 0165
ENCODING 357
SWIDTH 600 0
DWIDTH 10 0
BBX 8 11 1 0
BITMAP
03
36
36
FF
FF
30
30
30
31
3F
1E
ENDCHAR
STARTCHAR 0166
ENCODING 358
SWIDTH 600 0
DWIDTH 10 0
BBX 8 10 1 0
BITMAP
FF
FF
D9
D9
99
7E
7E
18
7E
7E
ENDCHAR
STARTCHAR 0167
ENCODING 359
SWIDTH 600 0
DWIDTH 10 0
BBX 8 10 1 0
BITMAP
30
30
FF
FF
30
7C
FC
31
3F
1E
ENDCHAR
STARTCHAR 0168
ENCODING 360
SWIDTH 600 0
DWIDTH 10 0
BBX 10 14 0 0
BITMAP
1900
3F00
2600
0000
FBC0
FBC0
6180
6180
6180
6180
6180
7380
3F00
1E00
ENDCHAR
STARTCHAR 0169
ENCODING 361
SWIDTH 600 0
DWIDTH 10 0
BBX 10 12 0 0
BITMAP
1900
3F00
2600
0000
F780
F780
3380
3380
3380
3380
3FC0
1DC0
ENDCHAR
STARTCHAR 016A
ENCODING 362
SWIDTH 600 0
DWIDTH 10 0
BBX 10 13 0 0
BITMAP
3F00
3F00
0000
FBC0
FBC0
6180
6180
6180
6180
6180
7380
3F00
1E00
ENDCHAR
STARTCHAR 016B
ENCODING 363
SWIDTH 600 0
DWIDTH 10 0
BBX 10 11 0 0
BITMAP
3F00
3F00
0000
F780
F780
3380
3380
3380
3380
3FC0
1DC0
ENDCHAR
STARTCHAR 016C
ENCODING 364
SWIDTH 600 0
DWIDTH 10 0
BBX 10 14 0 0
BITMAP
3100
3F00
1E00
0000
FBC0
FBC0
6180
6180
6180
6180
6180
7380
3F00
1E00
ENDCHAR
STARTCHAR 016D
ENCODING 365
SWIDTH 600 0
DWIDTH 10 0
BBX 10 12 0 0
BITMAP
2300
3F00
1E00
0000
F780
F780
3380
3380
3380
3380
3FC0
1DC0
ENDCHAR
STARTCHAR 016E
ENCODING 366
SWIDTH 600 0
DWIDTH 10 0
BBX 10 16 0 0
BITMAP
0C00
1E00
1200
1E00
0C00
0000
FBC0
FBC0
6180
6180
6180
6180
6180
7380
3F00
1E00
ENDCHAR
STARTCHAR 016F
ENCODING 367
SWIDTH 600 0
DWIDTH 10 0
BBX 10 14 0 0
BITMAP
0C00
1E00
1200
1E00
1C00
0000
F780
F780
3380
3380
3380
3380
3FC0
1DC0
ENDCHAR
STARTCHAR 0170
ENCODING 368
SWIDTH 600 0
DWIDTH 10 0
BBX 10 14 0 0
BITMAP
0CC0
1980
3300
0000
FBC0
FBC0
6180
6180
6180
6180
6180
7380
3F00
1E00
ENDCHAR
STARTCHAR 0171
ENCODING 369
SWIDTH 600 0
DWIDTH 10 0
BBX 10 12 0 0
BITMAP
0D80
1B80
3200
0000
F780
F780
3380
3380
3380
3380
3FC0
1DC0
ENDCHAR
STARTCHAR 0172
ENCODING 370
SWIDTH 600 0
DWIDTH 10 0
BBX 10 14 0 -4
BITMAP
FBC0
FBC0
6180
6180
6180
6180
6180
7380
3F00
1E00
0C00
0C00
1F00
0F00
ENDCHAR
STARTCHAR 0173
ENCODING 371
SWIDTH 600 0
DWIDTH 10 0
BBX 10 12 0 -4
BITMAP
F780
F780
3380
3380
3380
3380
3FC0
1DC0
0300
0300
03C0
03C0
ENDCHAR
STARTCHAR 0174
ENCODING 372
SWIDTH 600 0
DWIDTH 10 0
BBX 10 15 0 0
BITMAP
0400
0E00
1F00
3100
0000
F3C0
F3C0
6080
6D80
6D80
7F80
7F80
7380
7380
3380
ENDCHAR
STARTCHAR 0175
ENCODING 373
SWIDTH 600 0
DWIDTH 10 0
BBX 10 13 0 0
BITMAP
0400
0E00
1F00
3300
0000
F1C0
F1C0
6C80
6D80
7F80
7F80
3300
3300
ENDCHAR
STARTCHAR 0176
ENCODING 374
SWIDTH 600 0
DWIDTH 10 0
BBX 10 15 0 0
BITMAP
0400
0E00
1F00
3100
0000
FBC0
FBC0
3380
3B00
1E00
0E00
0C00
0C00
3F00
3F00
ENDCHAR
STARTCHAR 0177
ENCODING 375
SWIDTH 600 0
DWIDTH 10 0
BBX 10 16 0 -3
BITMAP
0400
0E00
1F00
3100
0000
FBC0
FBC0
3380
3300
1F00
1E00
0C00
0C00
1800
7800
7000
ENDCHAR
STARTCHAR 0178
ENCODING 376
SWIDTH 600 0
DWIDTH 10 0
BBX 10 13 0 0
BITMAP
3300
3300
0000
FBC0
FBC0
3380
3B00
1E00
0E00
0C00
0C00
3F00
3F00
ENDCHAR
STARTCHAR 0179
ENCODING 377
SWIDTH 600 0
DWIDTH 10 0
BBX 8 15 1 0
BITMAP
04
0E
1C
30
00
FF
FF
C6
CC
1C
38
33
73
FF
FF
ENDCHAR
STARTCHAR 017A
ENCODING 378
SWIDTH 600 0
DWIDTH 10 0
BBX 8 13 1 0
BITMAP
04
0E
1C
30
00
FF
FF
CE
1C
38
73
FF
FF
ENDCHAR
STARTCHAR 017B
ENCODING 379
SWIDTH 600 0
DWIDTH 10 0
BBX 8 13 1 0
BITMAP
18
18
00
FF
FF
C6
CC
1C
38
33
73
FF
FF
ENDCHAR
STARTCHAR 017C
ENCODING 380
SWIDTH 600 0
DWIDTH 10 0
BBX 8 11 1 0
BITMAP
18
18
00
FF
FF
CE
1C
38
73
FF
FF
ENDCHAR
STARTCHAR 017D
ENCODING 381
SWIDTH 600 0
DWIDTH 10 0
BBX 8 15 1 0
BITMAP
42
76
3C
18
00
FF
FF
C6
CC
1C
38
33
73
FF
FF
ENDCHAR
STARTCHAR 017E
ENCODING 382
SWIDTH 600 0
DWIDTH 10 0
BBX 8 13 1 0
BITMAP
42
76
3C
18
00
FF
FF
CE
1C
38
73
FF
FF
ENDCHAR
STARTCHAR 0192
ENCODING 402
SWIDTH 600 0
DWIDTH 10 0
BBX 10 13 0 -2
BITMAP
03C0
0780
0C00
0C00
3F80
3F80
0C00
0C00
0C00
0C00
1C00
F800
F000
ENDCHAR
STARTCHAR 0218
ENCODING 536
SWIDTH 600 0
DWIDTH 10 0
BBX 8 15 1 -5
BITMAP
3B
7F
E3
E0
7C
1F
C3
E3
FF
DE
00
00
18
18
10
ENDCHAR
STARTCHAR 0219
ENCODING 537
SWIDTH 600 0
DWIDTH 10 0
BBX 8 13 1 -5
BITMAP
7A
7F
E2
7C
3F
C3
FF
DE
00
00
18
18
10
ENDCHAR
STARTCHAR 021A
ENCODING 538
SWIDTH 600 0
DWIDTH 10 0
BBX 8 15 1 -5
BITMAP
FF
FF
D9
D9
99
18
18
18
7E
7E
00
00
18
18
30
ENDCHAR
STARTCHAR 021B
ENCODING 539
SWIDTH 600 0
DWIDTH 10 0
BBX 8 15 1 -5
BITMAP
30
30
FF
FF
30
30
30
31
3F
1E
00
00
1C
18
18
ENDCHAR
STARTCHAR 0237
ENCODING 567
SWIDTH 600 0
DWIDTH 10 0
BBX 7 11 1 -3
BITMAP
7E
7E
06
06
06
06
06
06
4E
FC
7C
ENDCHAR
STARTCHAR 02C6
ENCODING 710
SWIDTH 600 0
DWIDTH 10 0
BBX 6 4 2 9
BITMAP
10
38
7C
CC
ENDCHAR
STARTCHAR 02C7
ENCODING 711
SWIDTH 600 0
DWIDTH 10 0
BBX 6 4 2 9
BITMAP
84
EC
78
30
ENDCHAR
STARTCHAR 02D8
ENCODING 728
SWIDTH 600 0
DWIDTH 10 0
BBX 6 3 2 9
BITMAP
C4
FC
78
ENDCHAR
STARTCHAR 02D9
ENCODING 729
SWIDTH 600 0
DWIDTH 10 0
BBX 2 2 4 9
BITMAP
C0
C0
ENDCHAR
STARTCHAR 02DA
ENCODING 730
SWIDTH 600 0
DWIDTH 10 0
BBX 4 5 3 9
BITMAP
60
F0
90
F0
60
ENDCHAR
STARTCHAR 02DB
ENCODING 731
SWIDTH 600 0
DWIDTH 10 0
BBX 4 4 3 -4
BITMAP
70
C0
F0
F0
ENDCHAR
STARTCHAR 02DC
ENCODING 732
SWIDTH 600 0
DWIDTH 10 0
BBX 6 3 2 9
BITMAP
64
FC
98
ENDCHAR
STARTCHAR 02DD
ENCODING 733
SWIDTH 600 0
DWIDTH 10 0
BBX 8 3 2 9
BITMAP
33
66
CC
ENDCHAR
STARTCHAR 0326
ENCODING 806
SWIDTH 0 0
DWIDTH 0 0
BBX 3 3 -7 -5
BITMAP
60
60
C0
ENDCHAR
STARTCHAR 0394
ENCODING 916
SWIDTH 600 0
DWIDTH 10 0
BBX 8 10 1 0
BITMAP
18
1C
3C
3C
36
66
66
67
FF
FF
ENDCHAR
STARTCHAR 03A9
ENCODING 937
SWIDTH 600 0
DWIDTH 10 0
BBX 10 10 0 0
BITMAP
1E00
3F80
6180
61C0
61C0
61C0
6180
3380
F3C0
F3C0
ENDCHAR
STARTCHAR 03BC
ENCODING 956
SWIDTH 600 0
DWIDTH 10 0
BBX 7 11 2 -3
BITMAP
C6
C6
C6
C6
C6
CE
FE
F6
C0
C0
C0
ENDCHAR
STARTCHAR 03C0
ENCODING 960
SWIDTH 600 0
DWIDTH 10 0
BBX 9 8 1 0
BITMAP
FF80
FF80
6600
6600
6600
6600
6600
6600
ENDCHAR
STARTCHAR 1E80
ENCODING 7808
SWIDTH 600 0
DWIDTH 10 0
BBX 10 15 0 0
BITMAP
1000
3800
1C00
0600
0000
F3C0
F3C0
6080
6D80
6D80
7F80
7F80
7380
7380
3380
ENDCHAR
STARTCHAR 1E81
ENCODING 7809
SWIDTH 600 0
DWIDTH 10 0
BBX 10 13 0 0
BITMAP
1000
3800
1C00
0600
0000
F1C0
F1C0
6C80
6D80
7F80
7F80
3300
3300
ENDCHAR
STARTCHAR 1E82
ENCODING 7810
SWIDTH 600 0
DWIDTH 10 0
BBX 10 15 0 0
BITMAP
0200
0700
0E00
1800
0000
F3C0
F3C0
6080
6D80
6D80
7F80
7F80
7380
7380
3380
ENDCHAR
STARTCHAR 1E83
ENCODING 7811
SWIDTH 600 0
DWIDTH 10 0
BBX 10 13 0 0
BITMAP
0200
0700
0E00
1800
0000
F1C0
F1C0
6C80
6D80
7F80
7F80
3300
3300
ENDCHAR
STARTCHAR 1E84
ENCODING 7812
SWIDTH 600 0
DWIDTH 10 0
BBX 10 13 0 0
BITMAP
3300
3300
0000
F3C0
F3C0
6080
6D80
6D80
7F80
7F80
7380
7380
3380
ENDCHAR
STARTCHAR 1E85
ENCODING 7813
SWIDTH 600 0
DWIDTH 10 0
BBX 10 11 0 0
BITMAP
3300
3300
0000
F1C0
F1C0
6C80
6D80
7F80
7F80
3300
3300
ENDCHAR
STARTCHAR 1EF2
ENCODING 7922
SWIDTH 600 0
DWIDTH 10 0
BBX 10 15 0 0
BITMAP
1000
3800
1C00
0600
0000
FBC0
FBC0
3380
3B00
1E00
0E00
0C00
0C00
3F00
3F00
ENDCHAR
STARTCHAR 1EF3
ENCODING 7923
SWIDTH 600 0
DWIDTH 10 0
BBX 10 16 0 -3
BITMAP
1000
3800
1C00
0600
0000
FBC0
FBC0
3380
3300
1F00
1E00
0C00
0C00
1800
7800
7000
ENDCHAR
STARTCHAR 2011
ENCODING 8209
SWIDTH 600 0
DWIDTH 10 0
BBX 8 2 1 4
BITMAP
FF
FF
ENDCHAR
STARTCHAR 2013
ENCODING 8211
SWIDTH 600 0
DWIDTH 10 0
BBX 8 2 1 4
BITMAP
FF
FF
ENDCHAR
STARTCHAR 2014
ENCODING 8212
SWIDTH 600 0
DWIDTH 10 0
BBX 10 2 0 4
BITMAP
FFC0
FFC0
ENDCHAR
STARTCHAR 2018
ENCODING 8216
SWIDTH 600 0
DWIDTH 10 0
BBX 4 5 3 6
BITMAP
30
20
60
60
E0
ENDCHAR
STARTCHAR 2019
ENCODING 8217
SWIDTH 600 0
DWIDTH 10 0
BBX 4 5 3 6
BITMAP
70
60
60
60
C0
ENDCHAR
STARTCHAR 201A
ENCODING 8218
SWIDTH 600 0
DWIDTH 10 0
BBX 4 5 3 -2
BITMAP
70
60
60
60
C0
ENDCHAR
STARTCHAR 201C
ENCODING 8220
SWIDTH 600 0
DWIDTH 10 0
BBX 8 5 1 6
BITMAP
23
63
67
E6
EE
ENDCHAR
STARTCHAR 201D
ENCODING 8221
SWIDTH 600 0
DWIDTH 10 0
BBX 8 5 1 6
BITMAP
77
67
E6
C6
C4
ENDCHAR
STARTCHAR 201E
ENCODING 8222
SWIDTH 600 0
DWIDTH 10 0
BBX 8 5 1 -2
BITMAP
77
67
E6
C6
C4
ENDCHAR
STARTCHAR 2020
ENCODING 8224
SWIDTH 600 0
DWIDTH 10 0
BBX 6 8 2 2
BITMAP
30
30
FC
FC
30
30
30
30
ENDCHAR
STARTCHAR 2021
ENCODING 8225
SWIDTH 600 0
DWIDTH 10 0
BBX 6 9 2 1
BITMAP
30
30
FC
FC
30
FC
FC
30
30
ENDCHAR
STARTCHAR 2022
ENCODING 8226
SWIDTH 600 0
DWIDTH 10 0
BBX 4 5 3 3
BITMAP
F0
F0
F0
F0
F0
ENDCHAR
STARTCHAR 2026
ENCODING 8230
SWIDTH 600 0
DWIDTH 10 0
BBX 8 2 1 0
BITMAP
DB
DB
ENDCHAR
STARTCHAR 2030
ENCODING 8240
SWIDTH 600 0
DWIDTH 10 0
BBX 13 10 0 0
BITMAP
7000
F880
F980
7300
0E00
1FF0
3FF8
66D8
47F8
03F0
ENDCHAR
STARTCHAR 2032
ENCODING 8242
SWIDTH 600 0
DWIDTH 10 0
BBX 4 4 3 6
BITMAP
30
70
60
C0
ENDCHAR
STARTCHAR 2033
ENCODING 8243
SWIDTH 600 0
DWIDTH 10 0
BBX 8 4 1 6
BITMAP
3B
37
66
CC
ENDCHAR
STARTCHAR 2039
ENCODING 8249
SWIDTH 600 0
DWIDTH 10 0
BBX 4 7 3 1
BITMAP
30
70
60
C0
60
70
30
ENDCHAR
STARTCHAR 203A
ENCODING 8250
SWIDTH 600 0
DWIDTH 10 0
BBX 4 7 3 1
BITMAP
40
E0
70
30
70
E0
40
ENDCHAR
STARTCHAR 2044
ENCODING 8260
SWIDTH 600 0
DWIDTH 10 0
BBX 8 6 1 2
BITMAP
01
03
0E
38
60
80
ENDCHAR
STARTCHAR 2074
ENCODING 8308
SWIDTH 600 0
DWIDTH 10 0
BBX 6 7 2 4
BITMAP
18
38
78
D8
FC
18
18
ENDCHAR
STARTCHAR 20A3
ENCODING 8355
SWIDTH 600 0
DWIDTH 10 0
BBX 9 10 0 0
BITMAP
FF80
7F80
3180
3000
3E00
3E00
FF00
3000
7C00
FC00
ENDCHAR
STARTCHAR 20A9
ENCODING 8361
SWIDTH 600 0
DWIDTH 10 0
BBX 10 10 0 0
BITMAP
F3C0
F3C0
6480
FFC0
FFC0
7F80
7F80
7380
7380
3380
ENDCHAR
STARTCHAR 20AC
ENCODING 8364
SWIDTH 600 0
DWIDTH 10 0
BBX 9 10 0 0
BITMAP
1F80
3F80
7D80
FD80
3000
7C00
FC00
3080
3F80
0F00
ENDCHAR
STARTCHAR 2122
ENCODING 8482
SWIDTH 600 0
DWIDTH 10 0
BBX 11 5 0 6
BITMAP
FE40
27E0
27E0
27E0
2420
ENDCHAR
STARTCHAR 2202
ENCODING 8706
SWIDTH 600 0
DWIDTH 10 0
BBX 8 10 1 0
BITMAP
3C
3E
07
03
3B
7F
C6
C6
7C
78
ENDCHAR
STARTCHAR 220F
ENCODING 8719
SWIDTH 600 0
DWIDTH 10 0
BBX 8 10 1 0
BITMAP
FF
FF
C3
C3
C3
C3
C3
C3
C3
C3
ENDCHAR
STARTCHAR 2211
ENCODING 8721
SWIDTH 600 0
DWIDTH 10 0
BBX 8 10 1 0
BITMAP
7F
7F
70
38
1C
18
38
70
7F
FF
ENDCHAR
STARTCHAR 2212
ENCODING 8722
SWIDTH 600 0
DWIDTH 10 0
BBX 8 2 1 4
BITMAP
FF
FF
ENDCHAR
STARTCHAR 2215
ENCODING 8725
SWIDTH 600 0
DWIDTH 10 0
BBX 8 17 1 -3
BITMAP
02
03
06
06
06
0C
0C
1C
18
18
30
30
30
60
60
E0
C0
ENDCHAR
STARTCHAR 221A
ENCODING 8730
SWIDTH 600 0
DWIDTH 10 0
BBX 8 10 1 0
BITMAP
03
03
03
06
E6
E6
3C
3C
3C
18
ENDCHAR
STARTCHAR 221E
ENCODING 8734
SWIDTH 600 0
DWIDTH 10 0
BBX 10 5 0 2
BITMAP
7380
FFC0
CC40
FFC0
7380
ENDCHAR
STARTCHAR 222B
ENCODING 8747
SWIDTH 600 0
DWIDTH 10 0
BBX 10 16 0 -3
BITMAP
0780
0FC0
0C00
0C00
0C00
0C00
0C00
0C00
0C00
0C00
0C00
0C00
0C00
0C00
FC00
7800
ENDCHAR
STARTCHAR 2248
ENCODING 8776
SWIDTH 600 0
DWIDTH 10 0
BBX 8 7 1 1
BITMAP
71
FF
4E
00
71
FF
4E
ENDCHAR
STARTCHAR 2260
ENCODING 8800
SWIDTH 600 0
DWIDTH 10 0
BBX 8 9 1 1
BITMAP
04
06
FF
FF
18
18
FF
FF
60
ENDCHAR
STARTCHAR 2264
ENCODING 8804
SWIDTH 600 0
DWIDTH 10 0
BBX 8 10 1 0
BITMAP
01
0F
3E
F0
78
1F
03
00
FF
FF
ENDCHAR
STARTCHAR 2265
ENCODING 8805
SWIDTH 600 0
DWIDTH 10 0
BBX 8 10 1 0
BITMAP
40
F0
7C
0F
1E
F8
40
00
FF
FF
ENDCHAR
STARTCHAR 25CA
ENCODING 9674
SWIDTH 600 0
DWIDTH 10 0
BBX 8 10 1 0
BITMAP
18
3C
3C
66
67
E7
66
3C
3C
18
ENDCHAR
STARTCHAR FB01
ENCODING 64257
SWIDTH 600 0
DWIDTH 10 0
BBX 10 11 0 0
BITMAP
1E00
3E00
3000
FF80
FF80
3380
3380
3380
3380
37C0
37C0
ENDCHAR
STARTCHAR FB02
ENCODING 64258
SWIDTH 600 0
DWIDTH 10 0
BBX 10 11 0 0
BITMAP
1F00
3F80
3380
FF80
FB80
3380
3380
3380
3380
37C0
37C0
ENDCHAR
ENDFONT
